<svg width="160" height="60" viewBox="0 0 160 60" fill="none" xmlns="http://www.w3.org/2000/svg">
<path fill-rule="evenodd" clip-rule="evenodd" d="M107.443 22.3984L116.221 37.6026H109.198L103.932 28.4803L101.611 32.4992L98.0986 26.4173L100.419 22.3973L107.443 22.3984ZM59.6299 22.3973L68.409 37.6026H61.3862L59.6546 34.6041H54.3505L57.0026 30.0102L56.0939 28.4363L50.8016 37.6026H43.7788L52.5578 22.3973H59.6299ZM94.2471 22.3973L103.026 37.6026H96.0033L90.7357 28.4792L85.4692 37.6026H78.4453L87.2243 22.3973H94.2471ZM71.9987 32.0132L75.4639 32.4992V33.0409H67.0389L69.6728 37.6026H75.8716C76.5732 37.6026 77.2448 37.3237 77.7405 36.828C78.2361 36.3324 78.5151 35.6608 78.5151 34.9592V22.3973H71.9987V32.0132Z" fill="#7C7C7C"/>
</svg>
