<svg width="160" height="60" viewBox="0 0 160 60" fill="none" xmlns="http://www.w3.org/2000/svg">
<g clip-path="url(#clip0_1945_1161)">
<mask id="mask0_1945_1161" style="mask-type:luminance" maskUnits="userSpaceOnUse" x="32" y="20" width="96" height="20">
<path d="M32.8601 20.0006H127.14V39.9994H32.8601V20.0006Z" fill="white"/>
</mask>
<g mask="url(#mask0_1945_1161)">
<path d="M68.1038 39.9295C67.6172 39.9295 67.2486 39.6629 67.0229 39.1429L63.5546 31.7243C63.4355 31.4462 63.2336 31.3072 62.9365 31.3072H60.1462C59.9434 31.3072 59.8481 31.4005 59.8481 31.5967V39.0496C59.8481 39.3277 59.7653 39.5353 59.61 39.6867C59.4567 39.8486 59.2424 39.9295 58.9691 39.9295H57.9359C57.6625 39.9295 57.4492 39.8486 57.2949 39.6867C57.1397 39.5362 57.0569 39.3162 57.0569 39.0496V20.9269C57.0569 20.6488 57.1397 20.4402 57.2949 20.2888C57.4492 20.1393 57.6625 20.0584 57.9359 20.0584H63.9583C64.7421 20.0584 65.4792 20.1974 66.1677 20.4745C66.8324 20.7442 67.4377 21.1415 67.9495 21.644C68.4547 22.151 68.8544 22.753 69.1257 23.4153C69.4127 24.1083 69.5581 24.8518 69.5532 25.6018C69.5532 26.7132 69.2923 27.6969 68.7571 28.5531C68.2229 29.4102 67.5458 30.0692 66.7382 30.5092C66.4173 30.6825 66.3573 30.972 66.5363 31.3539L70.0637 38.8648C70.1951 39.1658 70.2065 39.4086 70.0875 39.6172C69.9694 39.8257 69.7675 39.9295 69.4704 39.9295H68.1038ZM63.7917 28.6683C64.1791 28.6719 64.5632 28.5974 64.9212 28.4493C65.2887 28.3102 65.5973 28.0903 65.8706 27.8236C66.1439 27.5465 66.3696 27.2217 66.5239 26.8399C66.6906 26.4589 66.7734 26.0418 66.7734 25.6018C66.7789 25.202 66.7016 24.8053 66.5462 24.4369C66.3908 24.0684 66.1608 23.7362 65.8706 23.461C65.5945 23.2056 65.2723 23.0053 64.9212 22.8706C64.5613 22.7313 64.1785 22.6606 63.7926 22.662H60.1814C59.991 22.662 59.8843 22.7668 59.8843 22.9515V28.3798C59.8843 28.5759 59.9795 28.6683 60.1814 28.6683H63.7917ZM83.7124 39.9419C83.4391 39.9419 83.2258 39.86 83.0705 39.7095C82.9909 39.6244 82.929 39.5244 82.8883 39.4152C82.8476 39.306 82.8289 39.1898 82.8334 39.0734V22.9744C82.8334 22.7782 82.7382 22.6849 82.5363 22.6849H78.1299C77.8566 22.6849 77.6423 22.6039 77.4766 22.4535C77.3214 22.303 77.2385 22.083 77.2385 21.8059V20.9259C77.2385 20.6593 77.3214 20.4402 77.4766 20.2898C77.6309 20.1393 77.8442 20.0584 78.1299 20.0584H90.3168C90.5901 20.0584 90.8034 20.1393 90.9586 20.2898C91.1129 20.4517 91.1967 20.6602 91.1967 20.9259V21.8059C91.1967 22.084 91.1129 22.2916 90.9586 22.4535C90.8034 22.6039 90.5901 22.6849 90.3168 22.6849H85.9104C85.7199 22.6849 85.6132 22.7782 85.6132 22.9744V39.062C85.6132 39.3391 85.5294 39.5477 85.3751 39.6981C85.2094 39.86 84.9952 39.9295 84.7219 39.9295H83.701L83.7124 39.941V39.9419ZM100.675 39.9419C100.402 39.9419 100.188 39.86 100.033 39.7095C99.9535 39.6245 99.8914 39.5245 99.8506 39.4153C99.8097 39.3061 99.7909 39.1899 99.7952 39.0734V20.9259C99.7952 20.6593 99.8676 20.4402 100.033 20.2898C100.188 20.1393 100.402 20.0584 100.675 20.0584H101.708C101.982 20.0584 102.195 20.1393 102.362 20.2898C102.516 20.4517 102.6 20.6602 102.6 20.9259V39.062C102.6 39.3391 102.516 39.5477 102.362 39.6981C102.207 39.86 101.993 39.9295 101.708 39.9295H100.675V39.941V39.9419ZM125.382 39.9419C125.109 39.9419 124.883 39.86 124.717 39.721C124.514 39.5289 124.341 39.3066 124.206 39.062L116.747 26.0418C116.651 25.8913 116.545 25.8218 116.438 25.8675C116.33 25.9151 116.271 26.0066 116.271 26.157V39.0496C116.271 39.3277 116.189 39.5353 116.033 39.6867C115.879 39.8486 115.666 39.9181 115.392 39.9181H114.371C114.097 39.9181 113.884 39.8372 113.717 39.6867C113.637 39.6015 113.575 39.5014 113.534 39.392C113.493 39.2827 113.475 39.1663 113.479 39.0496V20.9269C113.479 20.6602 113.563 20.4402 113.717 20.2888C113.872 20.1393 114.086 20.0584 114.371 20.0584H115.511C115.808 20.0584 116.046 20.1155 116.248 20.2203C116.438 20.325 116.616 20.5212 116.782 20.7869L123.921 33.1595C123.993 33.2747 124.087 33.3328 124.195 33.3099C124.301 33.2976 124.36 33.2052 124.36 33.0433V20.9259C124.36 20.6593 124.443 20.4402 124.598 20.2898C124.753 20.1393 124.966 20.0584 125.239 20.0584H126.273C126.546 20.0584 126.76 20.1393 126.915 20.2898C127.069 20.4517 127.153 20.6602 127.153 20.9259V39.062C127.153 39.3391 127.069 39.5477 126.915 39.6981C126.748 39.86 126.534 39.9295 126.273 39.9295H125.394L125.382 39.941V39.9419ZM48.6355 39.9991C49.2164 39.9991 49.4307 39.721 49.264 39.1772L43.231 20.8002C43.1244 20.4869 42.993 20.2793 42.8273 20.1631C42.6203 20.05 42.3869 19.9941 42.1511 20.0012H40.0341C39.7484 20.0012 39.5236 20.0584 39.3579 20.1631C39.1903 20.2679 39.0484 20.4869 38.9532 20.8002L32.9079 39.1772C32.7412 39.721 32.9555 39.9991 33.5373 39.9991H35.023C35.5686 39.9991 35.901 39.7676 36.0439 39.2934L37.3742 34.9994C37.4333 34.8022 37.5761 34.7099 37.8028 34.7099H44.3833C44.6081 34.7099 44.7386 34.8146 44.81 34.9994L46.1404 39.2934C46.2832 39.7676 46.628 39.9991 47.1622 39.9991H48.6355ZM43.8005 31.7129C43.8596 31.9443 43.7653 32.0595 43.5272 32.0595H38.6456C38.4075 32.0595 38.3123 31.9443 38.3723 31.7129L40.795 23.7381C40.855 23.5191 40.9616 23.4143 41.0921 23.4143C41.2226 23.4143 41.3302 23.5191 41.3892 23.7381L43.8005 31.7129Z" fill="#7C7C7C"/>
</g>
</g>
<defs>
<clipPath id="clip0_1945_1161">
<rect width="94.28" height="19.9988" fill="white" transform="translate(32.8601 20.0006)"/>
</clipPath>
</defs>
</svg>
