<svg width="160" height="60" viewBox="0 0 160 60" fill="none" xmlns="http://www.w3.org/2000/svg">
<path d="M39.2401 42.9193H38.3846V17.2572H39.2401V42.9193ZM67.0438 42.9193H64.9032V17.2572H67.0438V42.9193ZM97.8436 42.9193H92.7098V17.2572H97.8436V42.9193ZM132.058 42.9193H123.506V17.2572H132.058V42.9193ZM110.671 25.7211C113.447 25.7211 115.016 27.3264 115.016 30.0922C115.016 32.8542 113.447 34.4554 110.671 34.4554C107.898 34.4554 106.329 32.8542 106.329 30.0922C106.329 27.3265 107.898 25.7211 110.671 25.7211ZM26.0048 25.8949C27.581 25.9091 28.905 26.6125 28.9052 28.0892C28.9052 29.1223 28.0357 29.7472 27.0985 29.9213V29.9496C28.2095 30.0988 29.1179 30.8091 29.118 32.0052C29.118 34.4408 26.0044 34.2777 25.9227 34.2777H21.9891V25.8949H26.0048ZM52.3094 25.8949C53.7259 25.8949 55.5581 26.2787 55.5585 28.057C55.5585 29.3103 54.596 29.9713 53.4208 30.1097V30.1595C54.9083 30.1915 55.1815 30.9474 55.3378 32.2396C55.3946 32.9426 55.5224 33.6067 55.7177 34.2777H53.201C53.0732 33.699 53.0055 33.0952 52.9452 32.5023C52.8564 31.4906 52.8061 31.0717 51.6239 31.0717H50.7509V34.2777H48.4257V25.8949H52.3094ZM81.8524 32.14L81.8807 32.1195V25.8949H83.9647V34.2777H80.7479L77.9081 27.8588H77.8827V34.2777H75.7919V25.8949H79.0438L81.8524 32.14ZM110.671 27.351C109.091 27.3511 108.769 28.8099 108.768 30.1234C108.768 31.3625 109.091 32.8323 110.671 32.8324C112.251 32.8324 112.578 31.3625 112.578 30.1234C112.578 28.8099 112.251 27.351 110.671 27.351ZM24.3143 32.6556H25.6669C26.2456 32.6556 26.6795 32.3074 26.6796 31.7855C26.6796 31.317 26.3562 30.8768 25.8309 30.8412H24.3143V32.6556ZM50.7509 29.4496H51.6561C52.3981 29.4496 53.1189 29.3463 53.119 28.4838C53.119 27.6246 52.3982 27.5219 51.6561 27.5219H50.7509V29.4496ZM24.3143 29.2289L25.493 29.2152C26.1179 29.2152 26.5262 28.9734 26.5262 28.3344C26.5262 27.8587 26.1182 27.5219 25.5751 27.5219H24.3143V29.2289Z" fill="#7C7C7C"/>
</svg>
