<svg width="160" height="60" viewBox="0 0 160 60" fill="none" xmlns="http://www.w3.org/2000/svg">
<g clip-path="url(#clip0_1921_1136)">
<path d="M76.2404 29.6649C78.8584 28.7936 79.333 26.5965 79.3277 24.8056C79.3224 22.0676 77.3916 19.7032 71.6768 19.7032L61.0079 19.7011V40.2559H71.6473C77.3979 40.2559 79.5129 37.3043 79.5129 34.3474C79.5129 30.7666 76.2404 29.6649 76.2404 29.6649ZM66.0714 24.1732H73.2541L73.2793 24.1785C74.0896 24.3216 74.6799 25.0108 74.6799 25.8189C74.6799 26.647 74.0475 27.4268 73.212 27.5404L66.0745 27.552L66.0714 24.1732ZM72.9079 35.4649H66.0714V32.0251H73.0752L73.091 32.0272C73.9622 32.1261 74.6231 32.8511 74.6231 33.7108C74.6231 34.6505 73.8412 35.4523 72.9079 35.4649Z" fill="#7C7C7C"/>
<path d="M103.401 19.7053H121.428L121.418 24.19H108.411L108.424 27.5035H120.15V32.0124H108.424V35.5975H121.433L121.429 40.299H103.401" fill="#7C7C7C"/>
<path d="M92.9154 19.7306H82.014V40.2927H87.0196V31.9725L92.5334 31.9673C94.1118 31.9915 95.3398 33.2837 95.3398 34.8789V40.2738L100.239 40.2717L100.231 33.6372C100.231 30.5625 97.2602 29.6534 97.2602 29.6534C97.2602 29.6534 100.297 28.7463 100.297 25.1118C100.297 20.664 96.4762 19.7306 92.9154 19.7306ZM95.6481 26.1094C95.5576 26.786 94.8821 27.5194 94.0382 27.5194L87.0017 27.5215V24.23H94.0403C94.8821 24.23 95.5408 24.8477 95.6481 25.6611" fill="#7C7C7C"/>
<path d="M57.7627 35.3239C57.6922 35.325 50.9199 35.4555 48.5818 35.2282C44.819 34.8599 43.4847 32.0704 43.4847 29.7954C43.4847 26.9553 45.4198 24.8677 48.4166 24.4762C49.8435 24.2889 57.6386 24.3773 57.7217 24.3773L57.8848 24.3805L57.9016 19.7043H57.7364L48.9122 19.7211C47.9294 19.7811 46.3005 19.88 44.6317 20.5618C43.0312 21.2963 41.6359 22.4243 40.5952 23.827C39.2694 25.6116 38.5675 27.7319 38.5675 29.9543C38.5675 30.6551 38.6233 31.3485 38.7359 32.0146C39.3704 35.1314 41.4149 37.7126 44.3454 39.0994C45.3346 39.5351 46.8614 40.0559 49.9382 40.2295L51.5965 40.2643L57.747 40.2695H57.9101L57.9269 35.3218" fill="#7C7C7C"/>
</g>
<defs>
<clipPath id="clip0_1921_1136">
<rect width="83.286" height="21.0188" fill="white" transform="translate(38.3571 19.4906)"/>
</clipPath>
</defs>
</svg>
