<svg width="160" height="60" viewBox="0 0 160 60" fill="none" xmlns="http://www.w3.org/2000/svg">
<g clip-path="url(#clip0_1921_1268)">
<path fill-rule="evenodd" clip-rule="evenodd" d="M114.357 32.0907L109.589 24.8786H114.148L116.923 29.4941L119.674 24.8786H123.817L119.049 32.0907L123.817 39.3022H119.258L116.483 34.6868L113.732 39.3022H109.589L114.357 32.0907ZM40.576 32.3528V39.3022H36.4336V21.1197H40.576V27.3657C41.726 26.4572 46.3163 26.4666 47.4694 27.3558V21.1197H51.6119V39.3022H47.4694V32.3445C46.3385 30.1912 41.5955 30.2561 40.576 32.3528ZM62.2422 37.5113C62.0405 37.8004 61.8196 38.0595 61.5787 38.2874C61.0499 38.7878 60.4643 39.1548 59.8214 39.3879C59.1786 39.621 58.5197 39.7372 57.8449 39.7372C56.973 39.7372 56.1908 39.583 55.4979 39.2747C54.805 38.9663 54.2581 38.5007 53.8577 37.8783C53.4568 37.2559 53.2562 36.4881 53.2562 35.575C53.2562 34.5944 53.5286 33.742 54.0724 33.0178C54.6167 32.2931 55.4386 31.7361 56.5375 31.3468C57.5002 30.9974 58.4723 30.7716 59.4531 30.6704C60.2961 30.5826 61.2165 30.5333 62.2138 30.5209V30.1808C62.2138 29.3892 62.0245 28.7922 61.6463 28.3904C61.2681 27.9881 60.6996 27.7872 59.9406 27.7872C59.2658 27.7872 58.7472 27.9601 58.384 28.3058C58.0213 28.6515 57.7923 29.1042 57.6968 29.6638H53.7525C53.8964 28.5794 54.2462 27.6512 54.8014 26.8782C55.3571 26.1058 56.0886 25.5099 56.9972 25.0904C57.9052 24.671 58.95 24.4612 60.131 24.4612C61.4574 24.4612 62.5672 24.7094 63.4598 25.2057C64.3519 25.7019 65.0251 26.3809 65.4786 27.2427C65.9321 28.1044 66.1587 29.0933 66.1587 30.2089V35.7323C66.1587 36.661 66.1973 37.396 66.2747 37.9359C66.3521 38.4763 66.4455 38.9316 66.5544 39.3022H62.48C62.3717 38.9347 62.3 38.481 62.2654 37.9406C62.2566 37.7994 62.2484 37.6561 62.2422 37.5113ZM62.2138 32.8766C61.3249 32.8927 60.5778 32.9534 59.9731 33.0583C59.2596 33.1829 58.7019 33.3558 58.3005 33.5774C57.8991 33.7991 57.6158 34.056 57.4517 34.3488C57.2871 34.6411 57.2051 34.9614 57.2051 35.3087C57.2051 35.7935 57.3738 36.1808 57.7112 36.4694C58.0492 36.7586 58.5027 36.9029 59.0723 36.9029C59.6517 36.9029 60.1795 36.7528 60.6552 36.4518C61.1309 36.1512 61.5096 35.7364 61.7913 35.2085C62.073 34.6805 62.2138 34.0919 62.2138 33.4424V32.8766ZM68.5779 39.3022V20.0498H72.5227V39.3022H68.5779ZM78.4467 31.0374V39.3022H74.5018V24.9072H78.4467V26.7635C78.8331 26.0715 79.3052 25.5384 79.8624 25.1647C80.562 24.6954 81.355 24.4612 82.2414 24.4612C83.0689 24.4612 83.8072 24.6502 84.4578 25.0276C85.1079 25.4055 85.6182 25.9828 85.9881 26.7583C85.9963 26.776 86.0046 26.7931 86.0129 26.8107C86.4354 26.0959 86.9565 25.5472 87.5767 25.1647C88.3372 24.6954 89.1936 24.4612 90.1465 24.4612C91.0117 24.4612 91.7826 24.6502 92.4584 25.0276C93.1343 25.4055 93.6673 25.9828 94.0568 26.7583C94.4458 27.5344 94.6408 28.5186 94.6408 29.7116V39.3022H90.696V30.5364C90.696 29.9218 90.6274 29.4115 90.4912 29.0061C90.3545 28.6001 90.1491 28.2939 89.8746 28.0867C89.6002 27.8801 89.2534 27.7768 88.8345 27.7768C88.4873 27.7768 88.1746 27.8589 87.897 28.0229C87.619 28.1869 87.3785 28.4164 87.1758 28.7102C86.973 29.004 86.8172 29.3498 86.7078 29.7474C86.5984 30.145 86.5438 30.5749 86.5438 31.0374V39.3022H82.5989V30.5364C82.5989 29.9218 82.5308 29.4115 82.3941 29.0061C82.2574 28.6001 82.052 28.2939 81.7781 28.0867C81.5036 27.8801 81.1569 27.7768 80.7374 27.7768C80.3902 27.7768 80.0776 27.8589 79.8 28.0229C79.5219 28.1869 79.2815 28.4164 79.0787 28.7102C78.8759 29.004 78.7201 29.3498 78.6107 29.7474C78.5013 30.145 78.4467 30.5749 78.4467 31.0374ZM105.271 37.5113C105.069 37.8004 104.849 38.0595 104.608 38.2874C104.079 38.7878 103.493 39.1548 102.85 39.3879C102.208 39.621 101.549 39.7372 100.874 39.7372C100.002 39.7372 99.2198 39.583 98.5269 39.2747C97.834 38.9663 97.2871 38.5007 96.8867 37.8783C96.4858 37.2559 96.2851 36.4881 96.2851 35.575C96.2851 34.5944 96.5575 33.742 97.1013 33.0178C97.6456 32.2931 98.4675 31.7361 99.5664 31.3468C100.529 30.9974 101.501 30.7716 102.482 30.6704C103.325 30.5826 104.245 30.5333 105.243 30.5209V30.1808C105.243 29.3892 105.053 28.7922 104.675 28.3904C104.297 27.9881 103.729 27.7872 102.97 27.7872C102.295 27.7872 101.776 27.9601 101.413 28.3058C101.05 28.6515 100.821 29.1042 100.726 29.6638H96.7815C96.9254 28.5794 97.2752 27.6512 97.8303 26.8782C98.386 26.1058 99.1176 25.5099 100.026 25.0904C100.934 24.671 101.979 24.4612 103.16 24.4612C104.486 24.4612 105.596 24.7094 106.489 25.2057C107.381 25.7019 108.054 26.3809 108.508 27.2427C108.961 28.1044 109.188 29.0933 109.188 30.2089V35.7323C109.188 36.661 109.226 37.396 109.304 37.9359C109.381 38.4763 109.474 38.9316 109.583 39.3022H105.509C105.401 38.9347 105.329 38.481 105.294 37.9406C105.286 37.7994 105.277 37.6561 105.271 37.5113ZM105.243 32.8766C104.354 32.8927 103.607 32.9534 103.002 33.0583C102.289 33.1829 101.731 33.3558 101.329 33.5774C100.928 33.7991 100.645 34.056 100.481 34.3488C100.316 34.6411 100.234 34.9614 100.234 35.3087C100.234 35.7935 100.403 36.1808 100.74 36.4694C101.078 36.7586 101.532 36.9029 102.101 36.9029C102.681 36.9029 103.208 36.7528 103.684 36.4518C104.16 36.1512 104.539 35.7364 104.82 35.2085C105.102 34.6805 105.243 34.0919 105.243 33.4424V32.8766Z" fill="#7C7C7C"/>
</g>
<defs>
<clipPath id="clip0_1921_1268">
<rect width="87.6374" height="20.0836" fill="white" transform="translate(36.1814 19.9583)"/>
</clipPath>
</defs>
</svg>
