<svg width="160" height="60" viewBox="0 0 160 60" fill="none" xmlns="http://www.w3.org/2000/svg">
<g clip-path="url(#clip0_1921_1297)">
<path fill-rule="evenodd" clip-rule="evenodd" d="M90.6973 34.4275C90.6873 34.6017 90.5398 34.7364 90.365 34.7298L89.5029 34.6979C89.3283 34.6913 89.1911 34.5467 89.194 34.3722L89.2527 30.7337C89.2576 30.4402 89.2054 30.1484 89.099 29.8749L86.6891 23.6682C86.65 23.5676 86.6643 23.4541 86.7271 23.3659C86.7895 23.2781 86.8922 23.2276 87 23.2316L88.0706 23.2712C88.1952 23.2758 88.3056 23.352 88.3541 23.4666L89.6705 26.5738C89.6705 26.5738 89.8149 27.0512 90.2176 27.066C90.6205 27.0809 90.7685 26.6306 90.7685 26.6306L92.342 23.6129C92.3993 23.5031 92.5145 23.4361 92.6383 23.4407L93.7098 23.4803C93.8178 23.4843 93.9165 23.5425 93.9724 23.6346C94.0283 23.727 94.034 23.8414 93.9875 23.9389L91.1208 29.9477C90.9936 30.214 90.9197 30.5026 90.9029 30.7973L90.6973 34.4275ZM150.428 37.0804L138.396 36.4025C137.793 36.3682 137.234 36.0779 136.861 35.6042C136.487 35.1305 136.334 34.5193 136.441 33.9256L136.441 33.9241C136.547 33.3375 136.907 32.8281 137.426 32.5341C137.945 32.2401 138.567 32.1919 139.124 32.4026L150.507 36.7048C150.597 36.7384 150.649 36.8328 150.629 36.9267C150.609 37.0205 150.524 37.0858 150.428 37.0804ZM9.10792 37.2258C9.0121 37.2312 8.92682 37.1659 8.90686 37.0721C8.8869 36.9783 8.93852 36.8839 9.02835 36.8499L20.4113 32.5481C20.9689 32.3373 21.5912 32.3855 22.1097 32.6795C22.6281 32.9733 22.9892 33.4826 23.0947 34.0693L23.095 34.0707C23.2017 34.6648 23.0488 35.2759 22.6749 35.7497C22.301 36.2231 21.742 36.5137 21.1397 36.5476L9.10792 37.2258ZM28.7219 27.6886C28.8528 28.3494 29.1157 29.6687 29.2024 30.0423C29.2327 30.1718 29.381 30.2859 29.5219 30.2799C29.6106 30.2759 29.7629 30.1641 29.8156 30.052C30.0418 29.5723 31.245 27.5882 31.5969 27.0104C31.6577 26.91 31.7598 26.8416 31.8759 26.8231C32.1742 26.7754 32.7768 26.6796 33.2103 26.6123C33.3027 26.5978 33.3954 26.6357 33.4507 26.711C33.5063 26.786 33.5152 26.8858 33.4741 26.9697C32.9348 27.9807 31.6623 30.4128 31.7227 30.7433C31.7991 31.1626 31.8419 31.2966 31.96 31.5559C32.4229 32.5726 34.9802 36.2014 35.7873 37.3373C35.8392 37.4109 35.8495 37.5059 35.8144 37.5889C35.7793 37.6719 35.7037 37.7306 35.6148 37.7443L34.4264 37.9285C34.2758 37.9519 34.1249 37.8875 34.0376 37.7628L30.5968 32.8498C30.5041 32.7172 30.3378 32.6579 30.1818 32.7012L30.0834 32.7289C29.8704 32.7885 29.7363 32.999 29.7723 33.2171L30.5785 38.1136C30.5959 38.2189 30.5702 38.3264 30.5078 38.4128C30.4453 38.4992 30.3509 38.5571 30.2454 38.5734L29.2954 38.7214C29.0804 38.755 28.8782 38.6104 28.8403 38.396L27.0007 28.0009C26.9822 27.8965 27.0062 27.789 27.0669 27.702C27.1279 27.615 27.2206 27.556 27.3253 27.5375C27.6062 27.4881 27.9818 27.4223 28.2607 27.3735C28.4746 27.3358 28.6794 27.4759 28.7219 27.6886ZM60.1917 23.7304C61.8096 23.626 63.1834 24.5036 63.2601 25.6906L63.7233 32.8695C63.8 34.0565 62.5503 35.1034 60.9323 35.2081L60.8956 35.2104C59.2776 35.3147 57.9039 34.4372 57.8271 33.2499L57.3637 26.0713C57.2873 24.884 58.5367 23.8371 60.1549 23.7327L60.1917 23.7304ZM60.2641 25.1327L60.2633 25.133C59.953 25.153 59.6612 25.2625 59.4522 25.4376C59.2431 25.6127 59.1342 25.8389 59.1487 26.0667L59.5979 33.0252C59.6125 33.2528 59.7499 33.463 59.9798 33.6098C60.2094 33.7567 60.5128 33.828 60.8231 33.8078H60.824C61.1343 33.7878 61.426 33.6783 61.6348 33.5032C61.8438 33.3281 61.9531 33.1016 61.9385 32.874L61.4893 25.9156C61.4745 25.688 61.3373 25.4775 61.1075 25.3309C60.8776 25.184 60.5744 25.1128 60.2641 25.1327ZM39.7489 25.6706C41.3549 25.4476 42.7897 26.2219 42.9531 27.4L43.9427 34.5256C44.1064 35.7037 42.9371 36.8397 41.3312 37.0627L41.2947 37.0678C39.6888 37.2908 38.2542 36.5165 38.0905 35.3384L37.1009 28.2128C36.9372 27.0347 38.1065 25.8987 39.7127 25.6757L39.7489 25.6706ZM39.9243 27.0641H39.9235C39.6158 27.1068 39.3328 27.2375 39.1372 27.4277C38.9416 27.6176 38.8494 27.8512 38.8808 28.0771L39.8399 34.9839C39.8713 35.2098 40.0239 35.4094 40.2637 35.5389C40.5036 35.6684 40.8116 35.7171 41.1193 35.6744H41.1202C41.4282 35.6316 41.7111 35.5007 41.9067 35.3107C42.1021 35.1208 42.1945 34.8872 42.1631 34.6614L41.2037 27.7545C41.1724 27.5286 41.0201 27.329 40.7802 27.1995C40.5401 27.0698 40.2323 27.0213 39.9243 27.0641ZM46.433 25.4322C46.4208 25.3158 46.4553 25.1995 46.5292 25.1088C46.603 25.0181 46.71 24.9602 46.8263 24.9485L47.6791 24.8623C47.8391 24.8461 47.9953 24.9185 48.0863 25.0514L52.1723 31.0243C52.2162 31.0884 52.2984 31.1144 52.3711 31.0873C52.4441 31.0602 52.4894 30.9869 52.4806 30.9096L51.8098 24.9066C51.7967 24.7893 51.8315 24.6716 51.9059 24.58C51.9804 24.4885 52.0885 24.4306 52.206 24.4194L53.1711 24.3288C53.4126 24.3059 53.6271 24.483 53.6505 24.7246L54.6509 35.1399C54.6623 35.2566 54.6264 35.3729 54.5514 35.4633C54.4764 35.5534 54.3686 35.6099 54.2517 35.6202L53.5176 35.6852C53.3624 35.6989 53.2116 35.6296 53.1209 35.5027L49.1467 29.9445C49.0948 29.8718 49.0001 29.8436 48.9165 29.8761C48.8332 29.9086 48.7825 29.9933 48.7933 30.082L49.4667 35.625C49.4809 35.7425 49.4476 35.8606 49.3737 35.953C49.2998 36.0454 49.1917 36.1042 49.0742 36.1158L48.005 36.2242C47.7638 36.2487 47.5482 36.0734 47.5231 35.8324L46.433 25.4322ZM76.3685 23.7133C76.3674 23.5964 76.4127 23.4837 76.4946 23.4002C76.5767 23.3169 76.6885 23.2695 76.8054 23.2687L77.6624 23.2624C77.8236 23.2613 77.9721 23.3483 78.0503 23.4891L81.5593 29.8179C81.597 29.8861 81.6763 29.9197 81.7515 29.8995C81.8266 29.8792 81.8785 29.8105 81.877 29.7326L81.7712 23.6933C81.7689 23.5753 81.8146 23.4615 81.8973 23.3771C81.98 23.2929 82.0929 23.2456 82.211 23.2456L83.1804 23.2453C83.4231 23.2453 83.6201 23.4418 83.6204 23.6845L83.6418 34.1477C83.6421 34.2649 83.5956 34.3773 83.5126 34.4603C83.4293 34.543 83.3167 34.5892 83.1995 34.5886L82.4625 34.5843C82.3068 34.5835 82.1631 34.5005 82.0847 34.3656L78.6481 28.4601C78.603 28.3828 78.5115 28.3457 78.4253 28.3702C78.3395 28.3945 78.2807 28.4743 78.2833 28.5636L78.435 34.1454C78.4382 34.2635 78.3937 34.3782 78.3115 34.4631C78.2294 34.5481 78.1165 34.5966 77.9984 34.5975L76.9235 34.6052C76.6811 34.6069 76.4829 34.4121 76.4803 34.1697L76.3685 23.7133ZM67.6886 34.8219C67.4793 34.8285 67.3062 34.7173 67.3007 34.5729L66.9183 23.972C66.9055 23.6252 67.3016 23.3291 67.8035 23.31C67.8035 23.31 69.0273 23.255 69.515 23.2459C70.1772 23.2333 73.0839 23.4244 73.2137 26.8758C73.3434 30.3272 71.8664 30.8666 70.5055 31.3876C69.8398 31.6423 68.855 31.4603 68.8975 32.5948L68.9537 34.5125C68.9563 34.5826 68.9184 34.6517 68.8479 34.7038C68.7775 34.756 68.6805 34.7871 68.5787 34.7903L67.6886 34.8219ZM69.288 29.9936C69.6037 30.0261 69.9682 30.0603 70.2131 29.8855C70.7539 29.4993 71.4001 28.6777 71.3462 27.248C71.2926 25.818 70.5525 24.9257 70.0161 24.6479C69.7434 24.5067 69.3958 24.5555 69.0829 24.6134C68.9132 24.645 68.6431 24.754 68.6477 24.8746C68.6791 25.7074 68.7997 28.9181 68.8311 29.754C68.8357 29.8755 69.1151 29.9756 69.288 29.9936ZM91.6832 20.806C91.7861 20.81 91.8808 20.8642 91.9367 20.9512C91.9923 21.0382 92.0017 21.1468 91.9624 21.2424L91.3156 22.8004C91.2651 22.9225 91.1439 23 91.0118 22.9949L90.189 22.9627C90.0858 22.9587 89.9914 22.9045 89.9355 22.8175C89.8799 22.7305 89.8705 22.6219 89.9098 22.5263L90.5566 20.9683C90.6071 20.8462 90.7283 20.7687 90.8604 20.7738L91.6832 20.806ZM114.907 22.3358C115.01 22.3501 115.099 22.4131 115.146 22.5052C115.192 22.597 115.191 22.7063 115.143 22.7973L114.365 24.2537C114.303 24.3701 114.175 24.4357 114.044 24.4177L113.228 24.3059C113.126 24.292 113.037 24.2286 112.99 24.1368C112.943 24.045 112.944 23.9358 112.993 23.8448L113.77 22.3883C113.833 22.2716 113.961 22.2063 114.091 22.2243L114.907 22.3358ZM104.166 25.9258C104.18 25.7222 104.027 25.546 103.824 25.5308L102.193 25.4096C102.094 25.4022 102.003 25.3563 101.939 25.2813C101.875 25.2066 101.843 25.1093 101.85 25.0112L101.902 24.3442C101.918 24.14 102.096 23.9874 102.301 24.0033L108.17 24.4597C108.374 24.4756 108.526 24.6539 108.511 24.8581L108.459 25.5288C108.443 25.7319 108.266 25.8842 108.063 25.8699L106.312 25.7459C106.214 25.739 106.117 25.7716 106.043 25.8363C105.968 25.9007 105.923 25.9926 105.916 26.0907L105.298 35.1992C105.291 35.299 105.244 35.3917 105.169 35.4565C105.092 35.5212 104.993 35.5526 104.894 35.5435L103.883 35.4499C103.682 35.4314 103.533 35.2566 103.547 35.0558L104.166 25.9258ZM120.415 27.5127C120.441 27.3107 120.3 27.1248 120.098 27.0966L118.478 26.8704C118.381 26.857 118.292 26.8051 118.233 26.7261C118.174 26.6474 118.148 26.5484 118.162 26.4509L118.257 25.7887C118.286 25.5859 118.474 25.445 118.677 25.4741L124.504 26.3077C124.707 26.3365 124.848 26.5245 124.819 26.7272L124.723 27.3932C124.694 27.5948 124.508 27.7354 124.306 27.708L122.567 27.4716C122.47 27.4585 122.371 27.4844 122.293 27.5443C122.214 27.6039 122.163 27.6923 122.15 27.7902L120.946 36.84C120.933 36.9389 120.881 37.0285 120.8 37.0884C120.72 37.148 120.62 37.1728 120.521 37.1574L119.518 36.9988C119.319 36.9674 119.181 36.7832 119.208 36.5838L120.415 27.5127ZM111.514 33.7872C111.267 33.7678 111.033 33.8979 110.919 34.1178L110.043 35.8076C109.985 35.9205 109.863 35.9861 109.737 35.9724L108.645 35.8549C108.551 35.8446 108.467 35.7921 108.416 35.7123C108.366 35.6322 108.355 35.5338 108.387 35.4448L112.081 25.0643C112.129 24.9299 112.263 24.8458 112.405 24.8612L114.372 25.0731C114.514 25.0885 114.627 25.1989 114.645 25.3406L116.038 36.2071C116.05 36.3007 116.019 36.3945 115.953 36.4621C115.887 36.5294 115.794 36.5627 115.7 36.5528L114.448 36.4193C114.305 36.4042 114.191 36.2924 114.174 36.1495L113.973 34.4777C113.937 34.1868 113.702 33.9612 113.41 33.9378L111.514 33.7872ZM113.336 28.2322C113.319 28.1116 113.222 28.018 113.101 28.0055C112.98 27.9929 112.866 28.0645 112.825 28.1792L111.6 31.5821C111.535 31.7621 111.558 31.962 111.661 32.1228C111.764 32.284 111.936 32.3878 112.127 32.4038L113.171 32.4919C113.357 32.5076 113.54 32.4377 113.669 32.3019C113.798 32.1662 113.858 31.9791 113.832 31.794L113.336 28.2322ZM127.372 35.7708C127.127 35.738 126.886 35.8555 126.76 36.0688L125.796 37.7095C125.731 37.819 125.606 37.8778 125.48 37.8575L124.396 37.6816C124.303 37.6664 124.222 37.6094 124.176 37.527C124.13 37.4446 124.125 37.3456 124.161 37.2583L128.406 27.0909C128.461 26.9591 128.599 26.8824 128.74 26.9052L130.693 27.2223C130.834 27.2452 130.941 27.3615 130.951 27.5038L131.76 38.4293C131.768 38.5235 131.731 38.6156 131.661 38.6795C131.592 38.7433 131.497 38.7716 131.404 38.7567L130.16 38.5563C130.019 38.5334 129.912 38.4157 129.902 38.2722L129.79 36.5918C129.771 36.2995 129.548 36.0617 129.258 36.0229L127.372 35.7708ZM129.489 30.3213C129.479 30.2001 129.387 30.1014 129.267 30.0823C129.147 30.0634 129.029 30.1288 128.982 30.2408L127.576 33.5733C127.502 33.7496 127.513 33.9504 127.608 34.1166C127.702 34.2829 127.869 34.3958 128.058 34.4221L129.096 34.5661C129.281 34.5918 129.468 34.5319 129.604 34.403C129.74 34.2743 129.809 34.091 129.793 33.9044L129.489 30.3213Z" fill="#7C7C7C"/>
</g>
<defs>
<clipPath id="clip0_1921_1297">
<rect width="142.195" height="18.4528" fill="white" transform="translate(8.90259 20.7736)"/>
</clipPath>
</defs>
</svg>
