<?xml version="1.0" encoding="UTF-8" standalone="no"?>
<!DOCTYPE svg PUBLIC "-//W3C//DTD SVG 1.1//EN" "http://www.w3.org/Graphics/SVG/1.1/DTD/svg11.dtd">
<svg width="100%" height="100%" viewBox="0 0 661 206" version="1.1" xmlns="http://www.w3.org/2000/svg" xmlns:xlink="http://www.w3.org/1999/xlink" xml:space="preserve" xmlns:serif="http://www.serif.com/" style="fill-rule:evenodd;clip-rule:evenodd;stroke-linejoin:round;stroke-miterlimit:2;">
    <g transform="matrix(1,0,0,1,-2119,-217)">
        <g transform="matrix(1,0,0,1,1210.85,543.15)">
            <g transform="matrix(1,0,0,1,885.904,-353.571)">
                <path d="M95.168,79.304L94.059,83.477C94.059,83.547 93.96,83.616 93.96,83.696C93.154,86.749 92.851,89.009 93.355,91.21C93.858,93.47 95.369,95.611 97.786,98.447L124.068,127.572C131.419,135.542 135.345,141.956 137.057,148.558C138.668,155.2 137.964,162.09 135.548,171.032L134.239,175.453L134.239,175.562C129.808,192.009 122.859,204.767 112.185,213.451C101.41,222.145 86.708,226.814 66.569,226.814C45.926,226.814 33.34,222.442 27.298,213.094C21.357,203.895 21.558,189.372 27.298,168.127L30.822,155.418L74.424,155.418L68.985,175.562C67.878,179.538 67.676,182.323 68.985,184.108C70.194,185.813 72.611,186.239 76.136,186.239C80.164,186.239 83.285,185.525 85.702,183.761C88.018,182.006 89.629,179.25 90.636,175.424L91.945,170.645C92.549,168.246 92.952,166.343 92.65,164.459C92.248,161.505 90.234,158.71 86.206,154.308L61.433,127.413C54.082,119.572 50.055,113.336 48.444,106.893C46.833,100.409 47.638,93.649 50.054,84.687L51.565,79.165C55.996,62.709 62.944,49.951 73.618,41.267C84.393,32.572 99.094,27.903 119.233,27.903C139.977,27.903 152.464,32.275 158.506,41.623C164.447,50.823 164.246,65.346 158.506,86.59L155.284,98.328L111.582,98.328L116.817,79.165C117.924,75.18 118.126,72.394 116.918,70.61C115.709,68.905 113.192,68.479 109.668,68.479C105.74,68.479 102.519,69.192 100.203,70.957C97.786,72.712 96.175,75.468 95.168,79.304ZM195.462,183.394L251.148,183.394L240.071,223.999L141.589,223.999L196.771,31.056L239.467,31.056L195.462,183.394ZM552.435,31.056L500.173,223.999L463.519,223.999L454.658,132.231L429.484,223.999L390.514,223.999L443.178,31.056L479.429,31.056L489.297,118.432L513.465,31.056L552.435,31.056ZM636.317,72.275L593.621,223.999L552.435,223.999L594.527,72.474L559.384,72.325L570.763,31.056L682.335,31.056L671.158,72.295L636.317,72.275ZM316.501,177.129L299.583,223.999L256.787,224.029L327.074,31.056L395.75,31.056L376.516,223.999L333.922,223.999L339.762,177.129L316.501,177.129ZM343.891,142.095L352.349,81.108L348.825,81.108L328.483,142.095L343.891,142.095Z" style="fill:currentColor;"/>
            </g>
            <g transform="matrix(1,0,0,1,811.359,-202.965)">
                <path d="M718.209,68.451L718.209,43L731.747,43C737.898,43 740.973,45.604 740.973,50.812C740.973,55.996 737.544,58.589 730.687,58.589L725.172,58.589L725.172,68.451L718.209,68.451ZM733.833,68.451L726.127,56.715L733.833,56.715L741.645,68.451L733.833,68.451ZM725.172,53.251L731.182,53.251C733.114,53.251 734.08,52.438 734.08,50.812C734.08,49.162 733.055,48.337 731.005,48.337L725.172,48.337L725.172,53.251ZM729.485,82.025C724.065,82.025 719.293,80.917 715.169,78.702C711.068,76.487 707.863,73.411 705.554,69.476C703.244,65.517 702.09,60.933 702.09,55.725C702.09,50.517 703.244,45.946 705.554,42.01C707.863,38.051 711.068,34.964 715.169,32.749C719.293,30.534 724.065,29.426 729.485,29.426C734.929,29.426 739.701,30.534 743.801,32.749C747.925,34.964 751.13,38.051 753.416,42.01C755.725,45.946 756.88,50.517 756.88,55.725C756.88,60.933 755.725,65.517 753.416,69.476C751.13,73.411 747.925,76.487 743.801,78.702C739.701,80.917 734.929,82.025 729.485,82.025ZM729.485,76.652C733.632,76.652 737.273,75.78 740.408,74.036C743.542,72.268 745.993,69.818 747.76,66.683C749.528,63.526 750.411,59.873 750.411,55.725C750.411,51.578 749.528,47.937 747.76,44.803C745.993,41.645 743.542,39.194 740.408,37.45C737.273,35.683 733.632,34.799 729.485,34.799C725.361,34.799 721.72,35.683 718.562,37.45C715.428,39.194 712.977,41.645 711.21,44.803C709.466,47.937 708.594,51.578 708.594,55.725C708.594,59.873 709.478,63.514 711.245,66.648C713.012,69.782 715.463,72.233 718.597,74.001C721.732,75.768 725.361,76.652 729.485,76.652Z" style="fill:currentColor;fill-rule:nonzero;"/>
            </g>
        </g>
    </g>
</svg>
