<svg width="160" height="60" viewBox="0 0 160 60" fill="none" xmlns="http://www.w3.org/2000/svg">
<g clip-path="url(#clip0_1921_1307)">
<path d="M41.8513 26.5146C41.3276 26.7177 40.8039 26.9708 39.8614 27.478C37.766 28.5941 36.2459 31.284 39.4419 32.7041C42.6374 34.0744 43.5799 36.0534 39.285 37.9813C35.7749 39.5541 32.6316 41.6347 31.5842 43.9172C31.0599 43.5121 30.589 43.1059 30.1174 42.5981C26.9747 39.3005 26.2407 34.328 27.6026 29.6602C27.6553 29.4065 27.9693 29.2034 28.2839 29.1024C31.1126 27.9858 38.1843 26.4636 41.8513 26.5146Z" fill="#7C7C7C"/>
<path d="M56.4682 18.6028C61.8117 24.2857 60.2928 34.7379 53.0109 41.1816C51.858 42.2466 50.0778 43.2112 48.9771 43.9209C47.3012 44.987 45.2058 43.6679 47.0388 41.6883C53.2206 35.042 50.7585 33.5708 43.0578 31.1351C40.7006 30.1711 42.011 27.4817 43.4772 26.2641H43.5299C43.5814 26.2136 43.6342 26.2136 43.6342 26.1631C43.7396 25.3002 44.2627 24.5898 44.8919 24.4888L45.2586 19.4652C45.2586 19.4147 45.3101 19.3637 45.3628 19.3132C45.4155 19.3132 45.4677 19.2627 45.5198 19.2627C45.5725 19.2627 45.6768 19.3132 45.7295 19.3132C45.7295 19.3637 45.7822 19.4147 45.7822 19.4652L46.149 24.4888C46.8818 24.5393 47.5109 25.4522 47.5109 26.5183V26.5682C48.4007 26.6704 50.7058 26.9234 52.5399 27.5328C54.4255 28.0905 55.4735 28.6488 55.9445 29.004C56.4682 27.2792 56.8355 22.1035 52.3829 19.2627C45.5725 15.6598 38.1342 19.0596 32.9998 22.9665C32.1621 23.6258 31.1669 22.865 31.9003 22.1546C32.3718 21.6973 32.7385 21.2411 33.5241 20.6323C34.3102 19.922 35.0952 19.2627 35.9334 18.7044C42.7438 13.9855 51.5968 13.5798 56.4682 18.6028Z" fill="#7C7C7C"/>
<path d="M123.468 34.9886V34.9376L123.571 34.9886H123.468ZM123.468 30.7776L125.143 35.1407C124.829 35.8516 124.568 36.2068 124.148 36.2068C123.991 36.2068 123.885 36.2068 123.729 36.1557L123.677 36.815C123.885 36.8661 124.096 36.8661 124.201 36.8661C125.038 36.8661 125.457 36.4099 125.824 35.4454L127.606 30.5744H126.767L125.562 34.1773L124.305 30.5744H123.468V30.7776ZM125.824 28.4944L124.934 30.0167H125.404L126.662 28.4944H125.824ZM123.468 30.5744V30.7776L123.415 30.5744H123.468ZM123.468 34.9376L121.266 32.4519L123.31 30.5744H122.315L120.533 32.3503V28.4434H119.695V34.9886H120.533V32.7055L122.471 34.9886H123.468V34.9376ZM109.114 35.0908V34.4303C109.219 34.4303 109.375 34.4814 109.48 34.4814C109.9 34.4814 110.319 34.3293 110.738 34.1262V34.8366C110.319 35.0397 109.847 35.0908 109.323 35.0908H109.114ZM109.114 32.9591V32.4519H110.319C110.266 31.539 109.847 31.0817 109.166 31.0817H109.114V30.4729H109.219C110.371 30.4729 111.105 31.2848 111.105 32.655V32.9591H109.114ZM111.628 30.5744V31.2337H114.038L111.524 34.2783V34.9886H115.032V34.3293H112.413L115.032 31.2848V30.5744H111.628ZM118.542 30.7265C118.123 30.5744 117.757 30.5239 117.39 30.5239C116.395 30.5239 115.767 31.0312 115.767 31.691C115.767 32.2998 116.185 32.6039 117.023 33.0102C117.495 33.2632 117.809 33.4164 117.809 33.771C117.809 34.1773 117.495 34.4303 116.92 34.4303C116.552 34.4303 116.134 34.3293 115.715 34.1262V34.8366C116.081 34.9886 116.5 35.0397 116.867 35.0397C118.072 35.0397 118.7 34.4814 118.7 33.7205C118.7 33.0613 118.281 32.756 117.495 32.4014C116.92 32.1472 116.604 31.9447 116.604 31.64C116.604 31.3359 116.867 31.1327 117.337 31.1327C117.757 31.1327 118.123 31.2337 118.49 31.3869L118.542 30.7265ZM109.114 30.4729V31.0817C108.484 31.0817 108.014 31.5889 107.909 32.4519H109.114V32.9591H107.909C107.961 33.771 108.381 34.3293 109.114 34.4303V35.0908C107.856 34.9886 107.07 34.1262 107.07 32.756C107.07 31.4368 107.909 30.5239 109.114 30.4729ZM98.3754 35.0908V34.4303C99.161 34.4303 99.7368 33.8215 99.7368 32.756C99.7368 31.7421 99.161 31.1327 98.3754 31.1327V30.4729C99.7368 30.4729 100.575 31.3869 100.575 32.8071C100.575 34.2278 99.7368 35.0908 98.3754 35.0908ZM104.085 30.7265C103.718 30.5744 103.352 30.5239 102.985 30.5239C101.936 30.5239 101.308 31.0312 101.308 31.691C101.308 32.2998 101.78 32.6039 102.566 33.0102C103.089 33.2632 103.404 33.4164 103.404 33.771C103.404 34.1773 103.038 34.4303 102.513 34.4303C102.147 34.4303 101.727 34.3293 101.308 34.1262L101.256 34.8366C101.675 34.9886 102.041 35.0397 102.461 35.0397C103.613 35.0397 104.294 34.4814 104.294 33.7205C104.294 33.0613 103.823 32.756 103.038 32.4014C102.461 32.1472 102.147 31.9447 102.147 31.64C102.147 31.3359 102.461 31.1327 102.932 31.1327C103.299 31.1327 103.718 31.2337 104.085 31.3869V30.7265ZM105.185 34.9886H106.023V28.4434H105.185V34.9886ZM98.3754 30.4729V31.1327C97.5893 31.1327 97.0123 31.792 97.0123 32.756C97.0123 33.771 97.5893 34.4303 98.3754 34.4303V35.0908C96.9596 35.0908 96.1231 34.2278 96.1231 32.8071C96.1231 31.3359 96.9596 30.4729 98.3754 30.4729ZM81.1398 34.9886V34.4303C81.769 34.3293 82.1884 33.8726 82.1884 33.1622V32.8071H81.6114C81.455 32.8071 81.2974 32.8071 81.1398 32.8581V32.2998H82.1884V32.1983C82.1884 31.539 81.769 31.1327 81.1398 31.0817V30.4729H81.2974C82.3969 30.4729 82.9739 31.0817 82.9739 32.2998V34.9886H82.2411V34.2278C81.9781 34.6845 81.6114 34.8876 81.1398 34.9886ZM83.6025 30.5744L85.1742 34.9886H86.1688L87.7405 30.5744H86.9544L85.6984 34.2783L84.5456 30.5744H83.6025ZM90.936 30.7265C90.5171 30.5744 90.1504 30.5239 89.7837 30.5239C88.7363 30.5239 88.1593 31.0312 88.1593 31.691C88.1593 32.2998 88.5788 32.6039 89.3643 33.0102C89.8886 33.2632 90.2031 33.4164 90.2031 33.771C90.2031 34.1773 89.8886 34.4303 89.3122 34.4303C88.9455 34.4303 88.526 34.3293 88.1066 34.1262V34.8366C88.4733 34.9886 88.8927 35.0397 89.2594 35.0397C90.4117 35.0397 91.0941 34.4814 91.0941 33.7205C91.0941 33.0613 90.6747 32.756 89.8364 32.4014C89.3122 32.1472 88.9976 31.9447 88.9976 31.64C88.9976 31.3359 89.2594 31.1327 89.731 31.1327C90.1504 31.1327 90.5171 31.2337 90.8838 31.3869L90.936 30.7265ZM92.0888 28.4434V34.9886H92.927V32.7055L94.8654 34.9886H95.9128L93.6604 32.4519L95.7037 30.5744H94.7072L92.927 32.3503V28.4434H92.0888ZM81.1398 30.4729V31.0817H81.0356C80.6695 31.0817 80.25 31.2337 79.7785 31.4879V30.8286C80.1973 30.6255 80.6167 30.5239 81.1398 30.4729ZM81.1398 32.2998V32.8581C80.4592 32.9591 80.0925 33.2632 80.0925 33.7205C80.0925 34.1262 80.4064 34.4814 80.878 34.4814C80.9834 34.4814 81.0356 34.4303 81.1398 34.4303V34.9886C80.9834 35.0397 80.8259 35.0397 80.6695 35.0397C79.8306 35.0397 79.2542 34.5325 79.2542 33.771C79.2542 32.9081 79.8833 32.4014 81.1398 32.2998ZM73.23 42.3969V41.737C73.3875 41.5339 73.4397 41.2803 73.4397 40.9756V40.6715H73.23V40.1138H73.4397V40.0116C73.4397 39.7586 73.3875 39.5044 73.23 39.3523V38.4394C73.9112 38.642 74.2252 39.2003 74.2252 40.1637V42.802H73.4918V42.0922C73.4397 42.1938 73.3348 42.2953 73.23 42.3969ZM73.23 35.0908V34.4303C74.0682 34.4303 74.5919 33.8215 74.5919 32.756C74.5919 31.7421 74.0682 31.1327 73.23 31.1327V30.4729C74.5919 30.4729 75.4829 31.3869 75.4829 32.8071C75.4829 34.2278 74.5919 35.0908 73.23 35.0908ZM78.8875 30.5239H78.5208C77.945 30.5239 77.4734 30.8791 77.2121 31.4879V30.5744H76.4782V34.9886H77.3158V32.756C77.3158 31.792 77.7347 31.2848 78.5208 31.2848C78.6257 31.2848 78.7311 31.2848 78.8348 31.3359L78.8875 30.5239ZM75.4829 37.2213H76.2684V36.4099H75.4829V37.2213ZM75.4829 38.4394V43.0051C75.4829 43.7155 75.3253 44.0712 74.8538 44.0712C74.7495 44.0712 74.6446 44.0712 74.5398 44.0202L74.4877 44.6295C74.6968 44.6795 74.8538 44.7305 75.0113 44.7305C75.9539 44.7305 76.3206 44.1728 76.3206 43.0051V38.4394H75.4829ZM63.3823 28.9001V34.9886H64.1673V30.2198C64.1673 30.1688 64.1157 29.8646 64.1157 29.3063C64.1673 29.6615 64.2727 29.9146 64.3248 30.0167L66.2632 34.9886H67.0493L69.0393 30.1177C69.1447 29.9146 69.1962 29.6105 69.3017 29.2553C69.249 29.6105 69.249 29.9146 69.249 30.2198V34.9886H70.0872V28.9001H68.7768L66.8396 33.619C66.7869 33.7205 66.7342 33.9742 66.6815 34.3798C66.6815 34.0757 66.6299 33.8215 66.5772 33.619L64.6915 28.9001H63.3823ZM73.23 30.4729V31.1327C72.4438 31.1327 71.868 31.792 71.868 32.756C71.868 33.771 72.4438 34.4303 73.23 34.4303V35.0908C71.868 35.0908 70.9776 34.2278 70.9776 32.8071C70.9776 31.3359 71.868 30.4729 73.23 30.4729ZM73.23 38.4394V39.3523C73.073 39.0987 72.759 38.9467 72.3396 38.9467C71.9202 38.9467 71.5013 39.0477 71.0303 39.3018V38.642C71.5013 38.4394 72.0256 38.3373 72.5493 38.3373C72.8111 38.3373 73.0203 38.3373 73.23 38.4394ZM73.23 40.1138V40.6715H72.916C71.868 40.6715 71.3443 40.9756 71.3443 41.5339C71.3443 41.9912 71.6589 42.2953 72.1826 42.2953C72.6536 42.2953 73.0203 42.0922 73.23 41.737V42.3969C72.916 42.701 72.4966 42.8531 71.9202 42.8531C71.0825 42.8531 70.5066 42.3458 70.5066 41.585C70.5066 40.621 71.2916 40.1138 72.8633 40.1138H73.23ZM63.3296 36.3078V42.802H64.1673V40.5194L66.1584 42.802H67.2063L64.9528 40.3169L66.9439 38.4394H66.0014L64.1673 40.1637V36.3078H63.3296ZM70.1394 38.3884C70.0345 38.3373 69.8775 38.3373 69.8248 38.3373C69.1962 38.3373 68.7253 38.6925 68.5156 39.3523V38.4394H67.73V42.802H68.5683V40.621C68.5683 39.6565 69.0393 39.0987 69.7727 39.0987C69.8775 39.0987 69.9818 39.0987 70.1394 39.1492V38.3884Z" fill="#7C7C7C"/>
</g>
<defs>
<clipPath id="clip0_1921_1307">
<rect width="101" height="30" fill="white" transform="translate(26.95 15)"/>
</clipPath>
</defs>
</svg>
