<svg width="160" height="60" viewBox="0 0 160 60" fill="none" xmlns="http://www.w3.org/2000/svg">
<g clip-path="url(#clip0_1921_1282)">
<path d="M37.0454 40.7732V34.4031C36.898 33.0377 36.3042 32.0663 34.8035 32.0663V30.3617C35.4377 30.3617 36.5789 30.4283 37.4756 30.9777C38.8389 27.5179 43.0642 27.217 44.9708 27.217V30.6242C41.4423 30.6242 40.4204 33.3185 40.4204 36.8166V40.7732H37.0454ZM48.2185 40.7732C47.045 39.3311 46.3664 37.4569 46.3664 35.3301C46.3664 30.4384 50.0504 26.8151 54.9118 26.8151C59.8965 26.8151 63.4875 30.4384 63.4875 35.2998C63.4875 37.4286 62.7887 39.319 61.587 40.7732H55.1865C57.7576 40.6237 59.6097 38.3536 59.6097 35.2998C59.6097 32.141 57.6263 29.8184 54.9179 29.8184C52.1791 29.8184 50.2806 32.1733 50.2806 35.3301C50.2806 38.4122 52.0782 40.6257 54.6452 40.7732H48.2185ZM64.5701 40.7732L64.564 40.7611L66.8806 38.9211C67.6199 39.9976 68.7267 40.7732 70.7262 40.7732H64.5701ZM70.7262 40.7732C72.142 40.7732 73.1882 40.3066 73.1882 39.014C73.1882 35.936 65.374 37.0448 65.374 31.4745C65.374 28.6449 67.7734 26.9201 70.8817 26.9201C73.8972 26.9201 75.4968 28.6752 76.1108 29.9052L73.8042 31.4442C73.3417 30.705 72.4813 29.6588 70.6959 29.6588C69.4659 29.6588 68.5429 30.3051 68.5429 31.4139C68.5429 34.4899 76.3895 33.1973 76.3895 38.8605C76.3895 39.5594 76.2501 40.1996 75.9956 40.7732H70.7262ZM79.9725 40.7732C79.6251 39.7734 79.4837 38.5596 79.4837 37.1882V30.19H77.6881V27.4028C77.6881 27.4028 78.0315 27.4028 78.4193 27.4028C79.007 27.4028 79.4837 26.9262 79.4837 26.3384V24.0279H82.8283V27.4028H86.1104V30.19H82.8283V37.7154C82.8283 40.0623 83.6685 40.7005 85.248 40.7732H79.9725ZM89.5378 40.7732C89.039 39.6624 88.8249 38.3455 88.8249 36.9964V27.3341H92.1776V37.0266C92.1776 39.1756 93.4803 40.6863 95.494 40.7732H89.5378ZM95.5707 40.7732C97.5844 40.6863 98.8871 39.1756 98.8871 37.0266V27.3341H102.24V36.9964C102.24 38.3455 102.026 39.6624 101.527 40.7732H95.5707ZM106.38 40.7732C106.033 39.7734 105.891 38.5596 105.891 37.1882V30.19H104.096V27.4028C104.096 27.4028 104.439 27.4028 104.827 27.4028C105.415 27.4028 105.891 26.9262 105.891 26.3384V24.0279H109.236V27.4028H112.518V30.19H109.236V37.7154C109.236 40.0623 110.076 40.7005 111.656 40.7732H106.38ZM115.923 40.7732C115.423 39.6624 115.208 38.3455 115.208 36.9964V27.3341H118.563V37.0266C118.563 39.1756 119.864 40.6863 121.88 40.7732H115.923ZM121.954 40.7732C123.968 40.6863 125.271 39.1756 125.271 37.0266V27.3341H128.623V36.9964C128.623 38.3455 128.411 39.6624 127.91 40.7732H121.954ZM34.7329 19.213L37.1403 21.6204C38.4713 22.9494 38.4713 25.1084 37.1403 26.4374C35.8114 27.7664 33.6543 27.7664 32.3253 26.4374C30.9964 25.1084 30.9964 22.9494 32.3253 21.6204L34.7329 19.213Z" fill="#7C7C7C"/>
</g>
<defs>
<clipPath id="clip0_1921_1282">
<rect width="97.3411" height="21.6673" fill="white" transform="translate(31.3293 19.1664)"/>
</clipPath>
</defs>
</svg>
