<svg width="160" height="60" viewBox="0 0 160 60" fill="none" xmlns="http://www.w3.org/2000/svg">
<g clip-path="url(#clip0_1945_1172)">
<path d="M25.7968 39.1013L28.7244 42.0523C32.0171 45.3713 37.3544 45.3713 40.647 42.0523L43.5746 39.1013C43.6252 39.0493 43.5895 38.9613 43.5171 38.9613H25.8544C25.7819 38.9613 25.7452 39.0493 25.7968 39.1013Z" fill="#7C7C7C"/>
<path d="M28.1647 26.6524C24.002 26.6524 20.5417 23.6244 19.8313 19.6344C18.3681 21.5864 17.5 24.0174 17.5 26.6524C17.5 28.5554 18.2659 30.2794 19.503 31.5264C20.7411 32.7744 22.4504 33.5454 24.3383 33.5454H47.0436C48.9315 33.5454 50.4623 32.0024 50.4623 30.0994C50.4623 28.1954 48.9315 26.6524 47.0436 26.6524H28.1647Z" fill="#7C7C7C"/>
<path d="M44.9173 18.607L44.5373 18.224C42.5135 16.276 39.7913 15.062 36.7873 15.003V15H28.2387C26.5611 15 25.1326 16.315 25.073 18.005C25.0105 19.779 26.4183 21.237 28.1643 21.237H46.6623C46.7209 21.237 46.7586 21.173 46.7308 21.121C46.2387 20.202 45.6276 19.356 44.9173 18.607Z" fill="#7C7C7C"/>
<path d="M79.2748 25.7444H89.9127C90.5804 25.7444 91.122 26.2894 91.122 26.9634C91.122 27.6364 90.5804 28.1814 89.9127 28.1814H79.2748C78.6072 28.1814 78.0655 27.6364 78.0655 26.9634C78.0655 26.2894 78.6072 25.7444 79.2748 25.7444ZM79.2748 30.3744H89.9732V30.3734C91.8145 30.3404 93.2976 28.8264 93.2976 26.9634C93.2976 25.1404 91.879 23.6504 90.0943 23.5564V23.5514H79.2143C77.373 23.5844 75.8899 25.0994 75.8899 26.9634V31.5934C75.8899 33.4574 77.373 34.9714 79.2143 35.0034V35.0054H89.127C89.7282 35.0054 90.2153 34.5144 90.2153 33.9084C90.2153 33.3034 89.7282 32.8124 89.127 32.8124H79.2748C78.6072 32.8124 78.0655 32.2664 78.0655 31.5934C78.0655 30.9204 78.6072 30.3744 79.2748 30.3744Z" fill="#7C7C7C"/>
<path d="M73.6537 31.5934C73.6537 33.4784 72.1378 35.0054 70.2687 35.0054H60.235C59.6348 35.0054 59.1477 34.5144 59.1477 33.9084C59.1477 33.3034 59.6348 32.8124 60.235 32.8124H70.2687C70.9364 32.8124 71.4781 32.2664 71.4781 31.5934C71.4781 30.9204 70.9364 30.3744 70.2687 30.3744H62.5316C60.6626 30.3744 59.1477 28.8474 59.1477 26.9634C59.1477 25.0784 60.6626 23.5514 62.5316 23.5514H69.1804C69.7816 23.5514 70.2687 24.0424 70.2687 24.6474C70.2687 25.2534 69.7816 25.7444 69.1804 25.7444H62.5316C61.864 25.7444 61.3233 26.2894 61.3233 26.9634C61.3233 27.6364 61.864 28.1814 62.5316 28.1814H70.2687C72.1378 28.1814 73.6537 29.7084 73.6537 31.5934Z" fill="#7C7C7C"/>
<path d="M139.19 23.551H130.092C128.265 23.551 126.784 25.044 126.784 26.887V31.67C126.784 33.512 128.265 35.005 130.092 35.005H139.19C141.017 35.005 142.499 33.512 142.499 31.67V26.887C142.499 25.044 141.017 23.551 139.19 23.551ZM139.19 25.934C139.712 25.934 140.135 26.361 140.135 26.887V31.67C140.135 32.195 139.712 32.623 139.19 32.623H130.092C129.572 32.623 129.147 32.195 129.147 31.67V26.887C129.147 26.361 129.572 25.934 130.092 25.934H139.19Z" fill="#7C7C7C"/>
<path d="M113.154 35.1273C111.689 35.1273 110.43 34.3213 109.87 33.0243L107.185 26.8183L104.501 33.0243C103.939 34.3213 102.68 35.1273 101.216 35.1273C99.7507 35.1273 98.4918 34.3213 97.9303 33.0243L94.5186 25.1343C94.2517 24.5183 94.5315 23.7993 95.1436 23.5313C95.7557 23.2623 96.468 23.5443 96.7348 24.1613L100.147 32.0503C100.403 32.6443 101.029 32.6903 101.216 32.6903C101.401 32.6903 102.027 32.6443 102.284 32.0503L105.547 24.5053C105.827 23.8593 106.47 23.4413 107.185 23.4413C107.9 23.4413 108.542 23.8593 108.822 24.5053L112.086 32.0503C112.343 32.6443 112.969 32.6903 113.154 32.6903C113.34 32.6903 113.966 32.6443 114.223 32.0503L117.635 24.1613C117.901 23.5443 118.614 23.2623 119.226 23.5313C119.838 23.7993 120.118 24.5183 119.851 25.1343L116.439 33.0243C115.879 34.3213 114.62 35.1273 113.154 35.1273Z" fill="#7C7C7C"/>
<path d="M123.368 23.4293C122.7 23.4293 122.158 23.9743 122.158 24.6483V33.9083C122.158 34.5813 122.7 35.1273 123.368 35.1273C124.035 35.1273 124.577 34.5813 124.577 33.9083V24.6483C124.577 23.9743 124.035 23.4293 123.368 23.4293Z" fill="#7C7C7C"/>
<path d="M107.683 42.1339C107.683 42.8569 108.003 43.3049 108.5 43.3049C109.016 43.3049 109.347 42.8449 109.347 42.1339C109.347 41.4229 109.016 40.9689 108.5 40.9689C108.003 40.9689 107.683 41.4179 107.683 42.1339ZM109.893 42.1339C109.893 43.1019 109.401 43.7289 108.637 43.7289C108.233 43.7289 107.884 43.5319 107.718 43.2269H107.706V44.7619H107.185V40.6229H107.7V41.0589H107.712C107.872 40.7419 108.227 40.5449 108.631 40.5449C109.401 40.5449 109.893 41.1659 109.893 42.1339Z" fill="#7C7C7C"/>
<path d="M112.41 42.1759C112.179 42.1939 111.854 42.2289 111.623 42.2719C111.107 42.3489 110.929 42.4989 110.929 42.7969C110.929 43.1079 111.154 43.3169 111.545 43.3169C111.788 43.3169 112.02 43.2329 112.167 43.0779C112.351 42.8869 112.41 42.7189 112.41 42.3609V42.1759ZM112.914 41.7159V42.8809C112.914 43.2149 112.943 43.4719 112.985 43.6569H112.512C112.482 43.5199 112.47 43.3529 112.47 43.2149H112.458C112.251 43.5379 111.9 43.7229 111.415 43.7229C110.787 43.7229 110.396 43.3459 110.396 42.8329C110.396 42.3309 110.674 42.0149 111.539 41.8769C111.806 41.8349 112.173 41.7939 112.41 41.7759V41.6559C112.41 41.1549 112.132 40.9459 111.729 40.9459C111.29 40.9459 111.059 41.1899 111.041 41.5489H110.521C110.549 40.9749 110.965 40.5389 111.729 40.5389C112.464 40.5389 112.914 40.9159 112.914 41.7159Z" fill="#7C7C7C"/>
<path d="M115.479 40.6169V41.0889C115.414 41.0829 115.337 41.0709 115.272 41.0709C114.702 41.0709 114.383 41.4409 114.383 42.1099V43.6569H113.861V40.6229H114.359V41.0889H114.371C114.572 40.7549 114.875 40.5929 115.26 40.5929C115.325 40.5929 115.414 40.5989 115.479 40.6169Z" fill="#7C7C7C"/>
<path d="M117.41 43.215V43.645C117.321 43.669 117.185 43.681 117.079 43.681C116.503 43.681 116.26 43.436 116.26 42.809V41.041H115.74V40.623H116.26V39.888H116.782V40.623H117.38V41.041H116.782V42.755C116.782 43.101 116.894 43.245 117.197 43.245C117.274 43.245 117.357 43.233 117.41 43.215Z" fill="#7C7C7C"/>
<path d="M119.839 42.1398C119.839 42.8628 120.176 43.3108 120.722 43.3108C121.273 43.3108 121.611 42.8628 121.611 42.1398C121.611 41.4178 121.273 40.9698 120.722 40.9698C120.176 40.9698 119.839 41.4178 119.839 42.1398ZM122.156 42.1398C122.156 43.1318 121.605 43.7408 120.722 43.7408C119.839 43.7408 119.294 43.1318 119.294 42.1398C119.294 41.1488 119.839 40.5388 120.722 40.5388C121.605 40.5388 122.156 41.1488 122.156 42.1398Z" fill="#7C7C7C"/>
<path d="M123.577 40.3063V40.6233H124.175V41.0413H123.577V43.6573H123.061V41.0413H122.534V40.6233H123.061V40.2463C123.061 39.6613 123.352 39.3743 123.886 39.3743C123.992 39.3743 124.116 39.3863 124.187 39.4043V39.8103C124.151 39.7983 124.081 39.7923 124.016 39.7923C123.725 39.7923 123.577 39.9303 123.577 40.3063Z" fill="#7C7C7C"/>
<path d="M141.765 44.9503C142.17 44.9503 142.498 44.6193 142.498 44.2103V39.1073C142.498 38.7003 142.17 38.3683 141.765 38.3683H127.381C126.978 38.3683 126.648 38.7003 126.648 39.1073V44.2103C126.648 44.6193 126.978 44.9503 127.381 44.9503H141.765Z" fill="#7C7C7C"/>
<path d="M133.683 39.97H135.367V43.35H133.683V39.97Z" fill="white"/>
<path d="M131.093 41.9097V43.3497H132.778V39.9697H131.093V41.4097H129.961V39.9697H128.277V43.3497H129.961V41.9097H131.093Z" fill="white"/>
<path d="M138.988 39.9704H136.233V43.3624H138.988C139.956 43.3624 140.827 42.6274 140.829 41.6654C140.83 40.7084 139.956 39.9704 138.988 39.9704ZM137.901 43.0464V40.2744C138.514 40.2744 138.995 40.1604 138.995 41.6634C138.995 43.1614 138.594 43.0464 137.901 43.0464Z" fill="white"/>
</g>
<defs>
<clipPath id="clip0_1945_1172">
<rect width="125" height="30" fill="white" transform="translate(17.5 15)"/>
</clipPath>
</defs>
</svg>
